<svg xmlns="http://www.w3.org/2000/svg" viewBox="0 0 342.48 59"><defs><style>.cls-1{fill:#003087;}.cls-2{fill:#005eb8;}.cls-3{fill:#fff;}</style></defs><title>RegisterUsing_Original</title><g id="Layer_2" data-name="Layer 2"><g id="Layer_1-2" data-name="Layer 1"><rect class="cls-1" y="4" width="342.48" height="55" rx="4"/><rect class="cls-2" width="342.48" height="55" rx="4"/><rect class="cls-2" x="2.1" y="2" width="338.37" height="51"/><rect class="cls-2" x="101.05" y="13.98" width="223.43" height="27.04"/><path class="cls-3" d="M109.42,34.08l-1.56-4c-.38-1-.65-1.54-1.9-1.54h-.89v5.58h-2.69V20.65h4.21c4.35,0,5,1.83,5,3.64a3.08,3.08,0,0,1-2.77,3.12v0c.58,0,1.08.54,1.48,1.52l2.1,5.12Zm-3.31-7.69c2.31,0,2.69-1,2.69-1.87,0-.69-.21-1.75-2.58-1.75h-1.15v3.62Z"/><path class="cls-3" d="M122.08,33.52a6.76,6.76,0,0,1-3.38.79c-3.29,0-5.2-1.88-5.2-5.13,0-2.78,1.45-5.24,4.6-5.24,3.37,0,4.71,2.08,4.71,6H116a2.58,2.58,0,0,0,2.84,2.5,6.62,6.62,0,0,0,3.27-1Zm-1.73-5.36c-.09-1.43-.77-2.33-2.11-2.33A2.23,2.23,0,0,0,116,28.16Z"/><path class="cls-3" d="M131.36,32.5h0a3.52,3.52,0,0,1-3.07,1.58c-2.74,0-4-2.08-4-5,0-2.39,1.23-5.14,4.19-5.14a3.28,3.28,0,0,1,3,1.58h0V24.17h2.46v9c0,3.35-1.73,5.19-5.19,5.19a8.7,8.7,0,0,1-3.47-.67l.21-2.19a7.34,7.34,0,0,0,2.91.86c2.42,0,3-1.56,3-3.61Zm0-3.48c0-1.52-.54-3.08-2.17-3.08s-2.29,1.33-2.29,3.14c0,1.35.71,3,2.19,3C130.75,32.08,131.36,30.62,131.36,29Z"/><path class="cls-3" d="M136.66,22.36V19.9h2.58v2.46Zm0,11.72V24.17h2.58v9.91Z"/><path class="cls-3" d="M141.57,31.77a5.55,5.55,0,0,0,2.54.66c.69,0,1.69-.27,1.69-1.22S145,30.14,144,29.85c-1.73-.46-2.63-1.18-2.63-2.83,0-2,1.67-3.08,3.9-3.08a11.36,11.36,0,0,1,2.79.37l-.17,1.94a6.26,6.26,0,0,0-2.29-.42c-.91,0-1.54.36-1.54,1.09,0,.56.54.83,1.71,1.16,1.85.52,2.77,1.35,2.77,3,0,2.17-1.86,3.23-4.17,3.23a11.76,11.76,0,0,1-2.91-.42Z"/><path class="cls-3" d="M156.38,34.08a6.44,6.44,0,0,1-1.88.23,2.92,2.92,0,0,1-3.16-3.21v-5h-1.9V24.17h1.9v-2l2.58-.83v2.81h2.29v1.89h-2.29v4.6c0,1,.33,1.65,1.23,1.65a2.21,2.21,0,0,0,1.16-.27Z"/><path class="cls-3" d="M165.93,33.52a6.77,6.77,0,0,1-3.39.79c-3.29,0-5.19-1.88-5.19-5.13,0-2.78,1.44-5.24,4.6-5.24,3.36,0,4.71,2.08,4.71,6h-6.85a2.59,2.59,0,0,0,2.85,2.5,6.66,6.66,0,0,0,3.27-1Zm-1.73-5.36c-.1-1.43-.77-2.33-2.12-2.33a2.24,2.24,0,0,0-2.27,2.33Z"/><path class="cls-3" d="M168.74,34.08V24.17H171v2.25h0a3,3,0,0,1,2.73-2.48,2.34,2.34,0,0,1,.77.08v2.6a2.52,2.52,0,0,0-1.15-.22c-1,0-2.1.52-2.1,3.6v4.08Z"/><path class="cls-3" d="M188.18,34.08V32.74h0a4.14,4.14,0,0,1-3.25,1.57c-2.21,0-3.37-1.48-3.37-3.88V24.17h2.58v5.66c0,2,.73,2.48,1.68,2.48,1.55,0,2.27-1.44,2.27-3.35V24.17h2.58v9.91Z"/><path class="cls-3" d="M192.9,31.77a5.58,5.58,0,0,0,2.54.66c.69,0,1.69-.27,1.69-1.22s-.81-1.07-1.84-1.36c-1.74-.46-2.64-1.18-2.64-2.83,0-2,1.67-3.08,3.9-3.08a11.49,11.49,0,0,1,2.8.37l-.18,1.94a6.23,6.23,0,0,0-2.29-.42c-.9,0-1.54.36-1.54,1.09,0,.56.54.83,1.71,1.16,1.85.52,2.78,1.35,2.78,3,0,2.17-1.87,3.23-4.18,3.23a11.61,11.61,0,0,1-2.9-.42Z"/><path class="cls-3" d="M201.89,22.36V19.9h2.58v2.46Zm0,11.72V24.17h2.58v9.91Z"/><path class="cls-3" d="M213.7,34.08V28.52c0-1.48-.3-2.58-1.67-2.58-1.64,0-2.27,1.58-2.27,3.33v4.81h-2.58V24.17h2.45v1.35h0a3.7,3.7,0,0,1,3.25-1.58c2.28,0,3.37,1.56,3.37,3.89v6.25Z"/><path class="cls-3" d="M225.47,32.5h0a3.53,3.53,0,0,1-3.08,1.58c-2.73,0-4-2.08-4-5,0-2.39,1.23-5.14,4.19-5.14a3.28,3.28,0,0,1,3,1.58h0V24.17H228v9c0,3.35-1.73,5.19-5.19,5.19a8.73,8.73,0,0,1-3.47-.67l.22-2.19a7.26,7.26,0,0,0,2.9.86c2.43,0,3-1.56,3-3.61Zm0-3.48c0-1.52-.54-3.08-2.18-3.08S221,27.27,221,29.08c0,1.35.71,3,2.19,3C224.85,32.08,225.47,30.62,225.47,29Z"/><path class="cls-3" d="M243.9,34.08l-5.13-10h0v10h-2.58V20.65h3.31l5.12,10.05h0v-10h2.57V34.08Z"/><path class="cls-3" d="M258.26,34.08V28.19h-5.39v5.89h-2.69V20.65h2.69v5.43h5.39V20.65H261V34.08Z"/><path class="cls-3" d="M264.1,31.37a6.49,6.49,0,0,0,3,.83c1,0,2.38-.5,2.38-1.74,0-1-.9-1.46-2.23-2-1.79-.69-3.66-1.44-3.66-4,0-2.89,2.18-4.1,4.72-4.1a10,10,0,0,1,3.19.48l-.25,2.21a7,7,0,0,0-2.73-.57,1.87,1.87,0,0,0-2.12,1.86c0,1,1.16,1.41,2.28,1.85,1.8.67,3.61,1.5,3.61,4s-1.85,4.06-5.06,4.06a11.8,11.8,0,0,1-3.42-.52Z"/><path class="cls-3" d="M280,34.08V19.65h2.58V34.08Z"/><path class="cls-3" d="M289.79,34.31a4.89,4.89,0,0,1-5.17-5.12,5.19,5.19,0,1,1,10.37,0A4.9,4.9,0,0,1,289.79,34.31Zm2.5-5.42c0-1.58-.84-2.95-2.5-2.95s-2.48,1.39-2.48,2.95c0,2.09.81,3.42,2.48,3.42S292.29,31,292.29,28.89Z"/><path class="cls-3" d="M303.53,32.5h0a3.52,3.52,0,0,1-3.07,1.58c-2.74,0-4-2.08-4-5,0-2.39,1.23-5.14,4.19-5.14a3.28,3.28,0,0,1,3,1.58h0V24.17h2.46v9c0,3.35-1.73,5.19-5.19,5.19a8.73,8.73,0,0,1-3.47-.67l.21-2.19a7.34,7.34,0,0,0,2.91.86c2.42,0,3-1.56,3-3.61Zm0-3.48c0-1.52-.54-3.08-2.17-3.08s-2.29,1.33-2.29,3.14c0,1.35.71,3,2.19,3C302.92,32.08,303.53,30.62,303.53,29Z"/><path class="cls-3" d="M308.83,22.36V19.9h2.58v2.46Zm0,11.72V24.17h2.58v9.91Z"/><path class="cls-3" d="M320.64,34.08V28.52c0-1.48-.3-2.58-1.67-2.58-1.63,0-2.27,1.58-2.27,3.33v4.81h-2.58V24.17h2.45v1.35h0a3.71,3.71,0,0,1,3.26-1.58c2.27,0,3.36,1.56,3.36,3.89v6.25Z"/><polygon class="cls-2" points="18.54 14.54 18.54 40.46 84.42 40.46 84.42 14.54 18.54 14.54 18.54 14.54"/><path class="cls-3" d="M85.05,41V14H18V41ZM45,16.61,40.33,38.34H33.07l-4.57-15h-.06l-3,15H19.89l4.67-21.73h7.28l4.48,15.07h.06l3.07-15.07Zm20.77,0L61.2,38.34H55.35L57.29,29H50.37l-1.94,9.31H42.58l4.54-21.73H53l-1.72,8.31h6.91l1.72-8.31Zm16.81.59-1.41,4.33a11,11,0,0,0-4.82-1c-2.31,0-4.19.34-4.19,2.09,0,3.08,8.48,1.93,8.48,8.53,0,6-5.6,7.56-10.67,7.56a24.58,24.58,0,0,1-6.76-1.12l1.38-4.42a11.37,11.37,0,0,0,5.38,1.25c1.81,0,4.66-.35,4.66-2.59,0-3.49-8.48-2.18-8.48-8.31,0-5.61,4.94-7.29,9.73-7.29a17.91,17.91,0,0,1,6.7,1Z"/></g></g></svg>