<svg enable-background="new 0 0 491.683 491.683" viewBox="0 0 491.683 491.683" xmlns="http://www.w3.org/2000/svg"><path d="m488.387 461.233-223.4-449.2c-7.9-15.7-31.2-14.1-36.7 0l-225.7 449.2c-8 14.8 3.8 29.6 18.4 29.6h449c20.7 0 26-17.8 18.4-29.6zm-433.7-12.3 191.9-382.8 190.8 383.8z"/><path d="m225.187 157.033v187.8c0 11.2 9.2 20.4 20.4 20.4s20.4-9.2 20.4-20.4v-187.8c0-11.2-9.2-20.4-20.4-20.4s-20.4 9.2-20.4 20.4z"/><path d="m245.587 384.633c-11.2 0-20.4 9.2-20.4 20.4v7.1c0 11.2 9.2 20.4 20.4 20.4s20.4-9.2 20.4-20.4v-7.1c0-11.2-9.2-20.4-20.4-20.4z"/></svg>