<?xml version="1.0" ?><svg data-name="Layer 2" id="Layer_2" viewBox="0 0 32 32" xmlns="http://www.w3.org/2000/svg"><title/><path d="M22.53,8.35c-4-2.77-10.53-3.1-14.07.52a8.48,8.48,0,0,0-.21,11.5L6.66,22.83a1.08,1.08,0,0,0,.2,1.47A1.16,1.16,0,0,0,7.93,25c5.21.18,11.81,1.76,15.45-3C26.63,17.81,27.3,11.66,22.53,8.35ZM17.31,22.77a40.47,40.47,0,0,1-7.53-.16l1.12-1.74a1.26,1.26,0,0,0-.19-1.51c-3-2.91-2.91-7.92,1.13-9.94,3.5-1.75,9.59-.39,11.24,3.32C24.83,16.67,21.46,22.29,17.31,22.77Z"/><path d="M12.46,13.94a1.25,1.25,0,0,0,0,2.5A1.25,1.25,0,0,0,12.46,13.94Z"/><path d="M16,14.26a1.25,1.25,0,0,0,0,2.5A1.25,1.25,0,0,0,16,14.26Z"/><path d="M19.93,14.26a1.25,1.25,0,0,0,0,2.5A1.25,1.25,0,0,0,19.93,14.26Z"/></svg>